<?xml version="1.0" encoding="UTF-8"?>
<svg xmlns="http://www.w3.org/2000/svg" xmlns:xlink="http://www.w3.org/1999/xlink" width="500px" height="500px" viewBox="0 0 500 500" version="1.1">
<defs>
<radialGradient id="radial0" gradientUnits="userSpaceOnUse" cx="33" cy="32" fx="33" fy="32" r="28.609" spreadMethod="reflect" gradientTransform="matrix(7.8125,0,0,7.8125,0,0)">
<stop offset="0" style="stop-color:rgb(68.627451%,93.333333%,100%);stop-opacity:1;"/>
<stop offset="0.193" style="stop-color:rgb(73.333333%,94.509804%,100%);stop-opacity:1;"/>
<stop offset="0.703" style="stop-color:rgb(84.313725%,97.254902%,100%);stop-opacity:1;"/>
<stop offset="1" style="stop-color:rgb(88.235294%,98.039216%,100%);stop-opacity:1;"/>
</radialGradient>
<linearGradient id="linear0" gradientUnits="userSpaceOnUse" x1="32" y1="14" x2="32" y2="49.979" spreadMethod="reflect" gradientTransform="matrix(7.8125,0,0,7.8125,0,0)">
<stop offset="0" style="stop-color:rgb(25.882353%,84.313725%,47.058824%);stop-opacity:1;"/>
<stop offset="0.428" style="stop-color:rgb(23.921569%,79.215686%,46.27451%);stop-opacity:1;"/>
<stop offset="1" style="stop-color:rgb(20.392157%,69.411765%,44.313725%);stop-opacity:1;"/>
</linearGradient>
</defs>
<g id="surface38767">
<path style=" stroke:none;fill-rule:nonzero;fill:url(#radial0);" d="M 414.0625 265.625 L 455.007812 265.625 C 477.414062 265.625 497.523438 249.359375 499.78125 227.0625 C 502.367188 201.476562 482.117188 179.6875 457.03125 179.6875 L 306.015625 179.6875 C 293.328125 179.6875 281.945312 170.1875 281.289062 157.507812 C 280.578125 143.992188 291.328125 132.8125 304.6875 132.8125 L 345.632812 132.8125 C 368.039062 132.8125 388.148438 116.546875 390.40625 94.25 C 392.992188 68.664062 372.742188 46.875 347.65625 46.875 L 82.03125 46.875 C 58.296875 46.875 39.0625 66.109375 39.0625 89.84375 C 39.0625 113.578125 58.296875 132.8125 82.03125 132.8125 L 109.375 132.8125 C 118.007812 132.8125 125 139.804688 125 148.4375 C 125 157.070312 118.007812 164.0625 109.375 164.0625 L 52.4375 164.0625 C 34.101562 164.0625 17.648438 177.375 15.804688 195.609375 C 13.6875 216.546875 30.257812 234.375 50.78125 234.375 L 100.234375 234.375 C 112.921875 234.375 124.304688 243.875 124.960938 256.554688 C 125.671875 270.070312 114.921875 281.25 101.5625 281.25 L 75.875 281.25 C 57.539062 281.25 41.085938 294.5625 39.242188 312.796875 C 37.132812 333.734375 53.695312 351.5625 74.21875 351.5625 L 108.539062 351.5625 C 116.320312 351.5625 123.539062 356.882812 124.789062 364.5625 C 126.375 374.351562 118.867188 382.8125 109.375 382.8125 L 75.875 382.8125 C 57.539062 382.8125 41.085938 396.125 39.242188 414.359375 C 37.125 435.296875 53.695312 453.125 74.21875 453.125 L 246.09375 453.125 C 246.765625 453.125 247.390625 452.960938 248.046875 452.929688 C 248.703125 452.984375 249.328125 453.125 250 453.125 L 385.828125 453.125 C 398.875 453.125 410.789062 444.359375 413.460938 431.585938 C 417.125 414.046875 403.65625 398.4375 386.71875 398.4375 L 344.585938 398.4375 C 336.804688 398.4375 329.585938 393.117188 328.335938 385.4375 C 326.75 375.648438 334.257812 367.1875 343.75 367.1875 L 439.75 367.1875 C 458.085938 367.1875 474.539062 353.875 476.382812 335.632812 C 478.492188 314.703125 461.929688 296.875 441.40625 296.875 L 414.898438 296.875 C 407.117188 296.875 399.898438 291.554688 398.648438 283.875 C 397.0625 274.085938 404.570312 265.625 414.0625 265.625 Z M 414.0625 265.625 "/>
<path style=" stroke:none;fill-rule:nonzero;fill:url(#linear0);" d="M 405.96875 117.46875 L 199.078125 324.359375 L 94.03125 219.03125 C 83.242188 208.242188 65.757812 208.242188 54.96875 219.03125 C 44.179688 229.820312 44.179688 247.304688 54.96875 258.09375 L 178.5625 381.960938 C 189.898438 393.296875 208.273438 393.296875 219.609375 381.960938 L 445.039062 156.53125 C 455.828125 145.742188 455.828125 128.257812 445.039062 117.46875 C 434.25 106.679688 416.757812 106.679688 405.96875 117.46875 Z M 405.96875 117.46875 "/>
</g>
</svg>
